<svg
    className="css-1j8o68f"
    height="140.84892192947393"
    viewBox="0 0 200 140.84892192947393"
    width="200"
  >
    <defs id="SvgjsDefs6768">
      <linearGradient id="SvgjsLinearGradient6773">
        <stop id="SvgjsStop6774" offset="0" stopColor="#51504f" />
        <stop id="SvgjsStop6775" offset="0.5" stopColor="#939598" />
        <stop id="SvgjsStop6776" offset="1" stopColor="#51504f" />
      </linearGradient>
      <linearGradient id="SvgjsLinearGradient6777">
        <stop id="SvgjsStop6778" offset="0" stopColor="#51504f" />
        <stop id="SvgjsStop6779" offset="0.5" stopColor="#939598" />
        <stop id="SvgjsStop6780" offset="1" stopColor="#51504f" />
      </linearGradient>
    </defs>
    <g
      fill="url(#SvgjsLinearGradient6773)"
      id="SvgjsG6769"
      transform="matrix(0.8476371765136719,0,0,0.8476371765136719,57.87243133751614,-6.23352403076907)"
    >
      <g xmlns="http://www.w3.org/2000/svg">
        <g>
          <path d="M46.836,38.603v6.415c1.439-0.249,2.918-0.387,4.429-0.387c1.208,0,2.394,0.089,3.558,0.25v-6.278h6.048l-4.893-8.476    l-4.895-8.474l-4.891,8.474l-4.895,8.476H46.836z" />
          <path d="M31.646,53.728c2.19-2.604,4.907-4.76,7.984-6.321V24.305h6.049l-4.894-8.475l-4.894-8.476L31,15.83l-4.895,8.475h5.541    V53.728z" />
          <path d="M51.265,47.266c-12.601,0-22.819,10.08-22.819,22.515c0,12.436,10.219,22.515,22.819,22.515    c12.605,0,22.82-10.079,22.82-22.515C74.085,57.346,63.87,47.266,51.265,47.266z M51.265,87.503    c-9.919,0-17.96-7.935-17.96-17.722s8.041-17.723,17.96-17.723c9.923,0,17.964,7.935,17.964,17.723S61.188,87.503,51.265,87.503z" />
          <path d="M57.035,69.932c-0.528-0.521-1.21-0.963-2.047-1.326c-0.438-0.188-1.333-0.449-2.686-0.782v-7.643    c0.876,0.176,1.564,0.542,2.065,1.096c0.505,0.554,0.833,1.355,0.993,2.394l2.779-0.414c-0.239-1.679-0.945-2.998-2.12-3.962    c-0.917-0.756-2.156-1.205-3.718-1.354v-1.266h-1.582v1.266c-1.782,0.176-3.125,0.661-4.031,1.443    c-1.354,1.168-2.029,2.695-2.029,4.581c0,1.061,0.229,2.009,0.693,2.843c0.463,0.833,1.121,1.488,1.979,1.959    c1.153,0.638,2.283,1.06,3.389,1.267v8.438c-1.056-0.106-1.961-0.632-2.719-1.574c-0.526-0.669-0.894-1.714-1.104-3.139    l-2.703,0.501c0.101,1.374,0.457,2.537,1.067,3.491c0.614,0.952,1.34,1.643,2.182,2.071c0.84,0.425,1.932,0.723,3.276,0.89v2.652    h1.582v-2.682c1.881-0.088,3.414-0.746,4.599-1.975c1.183-1.226,1.776-2.755,1.776-4.592c0-0.836-0.143-1.609-0.427-2.328    C57.968,71.07,57.562,70.451,57.035,69.932z M50.721,67.485c-1.225-0.361-2.094-0.849-2.604-1.458    c-0.513-0.608-0.769-1.364-0.769-2.267c0-0.912,0.299-1.705,0.902-2.37c0.602-0.67,1.426-1.082,2.471-1.24V67.485z M54.892,77.133    c-0.681,0.769-1.543,1.213-2.589,1.34v-8.07c1.441,0.462,2.403,0.983,2.887,1.568c0.484,0.584,0.725,1.358,0.725,2.321    C55.914,75.42,55.574,76.367,54.892,77.133z" />
        </g>
      </g>
    </g>
    <g
      fill="url(#SvgjsLinearGradient6777)"
      id="SvgjsG6770"
      transform="matrix(1.7985612154006958,0,0,1.7985612154006958,-3.309353097650901,68.18704840260921)"
    >
      <path d="M7.88 18.6 l-5.68 0 c-0.2 0 -0.36 -0.16 -0.36 -0.36 l0 -4.28 c0 -0.2 0.16 -0.36 0.36 -0.36 l16.68 0 c0.2 0 0.36 0.16 0.36 0.36 l0 4.28 c0 0.2 -0.16 0.36 -0.36 0.36 l-5.68 0 l0 21.04 c0 0.2 -0.16 0.36 -0.36 0.36 l-4.6 0 c-0.2 0 -0.36 -0.16 -0.36 -0.36 l0 -21.04 z M16.44 15.8 l-12.08 0 c-0.28 0 -0.28 0.52 0 0.52 l5.92 0 l0 21.2 c0 0.28 0.52 0.28 0.52 0 l0 -21.2 l5.64 0 c0.4 0 0.36 -0.52 0 -0.52 z M39.84 29.560000000000002 c-0.56 1.16 -1.36 2.04 -2.48 2.56 l3.36 7.4 c0.12 0.24 -0.04 0.48 -0.28 0.48 l-4.92 0 c-0.16 0 -0.24 -0.08 -0.28 -0.2 l-3.12 -6.8 l-2.04 0 l0 6.64 c0 0.2 -0.16 0.36 -0.36 0.36 l-4.6 0 c-0.16 0 -0.28 -0.16 -0.28 -0.36 l0 -25.68 c0 -0.2 0.12 -0.36 0.28 -0.36 l8.32 0 c4.44 0 7.12 2.52 7.12 7.2 l0 5.04 c0 1.4 -0.24 2.72 -0.72 3.72 z M35.32 24.6 l0 -2.6 c0 -2.8 -1.04 -3.08 -4.08 -3.08 l-1.16 0 l0 8.84 l1.16 0 c2.52 0 4 -0.04 4.08 -3.16 z M27.76 37.56 l0 -6.84 l5.76 0 l3.36 6.92 c0.08 0.2 0.56 0.12 0.44 -0.24 l-3.36 -6.8 c3.12 -0.44 4.2 -2.08 4.2 -5.04 l0 -5 c0 -4.4 -4 -4.76 -5.24 -4.76 l-5.4 0 c-0.08 0 -0.24 0.12 -0.24 0.24 l0 21.52 c0 0.28 0.48 0.28 0.48 0 z M37.68000000000001 20.56 l0 5 c0 4.08 -2.6 4.64 -5.12 4.64 l-4.8 0 l0 -13.88 l5.16 0 c4.32 0 4.76 2.92 4.76 4.24 z M52.64 13.84 c0.04 -0.12 0.12 -0.24 0.28 -0.24 l4.96 0 c0.16 0 0.24 0.12 0.28 0.24 l6.92 25.72 c0.04 0.24 -0.12 0.44 -0.36 0.44 l-4.56 0 c-0.12 0 -0.24 -0.08 -0.28 -0.24 l-1.56 -5.6 l-5.84 0 l-1.52 5.6 c-0.04 0.16 -0.12 0.24 -0.28 0.24 l-4.6 0 c-0.24 0 -0.4 -0.2 -0.36 -0.44 z M53.760000000000005 29.2 l3.32 0 l-1.72 -6.04 z M59.92 31.560000000000002 l1.84 6 c0.08 0.24 0.52 0.2 0.4 -0.12 l-6.4 -21.28 c-0.12 -0.52 -0.8 -0.56 -0.92 0 l-6.2 21.28 c-0.12 0.28 0.32 0.4 0.44 0.16 l1.76 -6.04 l9.08 0 z M50.96 31.04 l4.36 -14.72 l4.44 14.72 l-8.8 0 z M83.2 30.759999999999998 l0 -1.24 c0 -0.2 0.16 -0.36 0.36 -0.36 l4.56 0 c0.2 0 0.36 0.16 0.36 0.36 l0 2.52 c0 5.88 -3.16 8.36 -9.12 8.36 c-5.56 0 -9.2 -2.2 -9.2 -8.36 l0 -10.52 c0 -5.92 3.24 -8.28 9.2 -8.28 c5.64 0 9.12 2.16 9.12 8.28 l0 0.84 c0 0.2 -0.16 0.36 -0.36 0.36 l-4.6 0 c-0.2 0 -0.36 -0.16 -0.36 -0.36 l0 -0.64 c0 -2.2 -1.64 -3.12 -3.6 -3.12 l-0.48 0 c-1.32 0 -2.2 0.36 -2.8 1.16 c-0.56 0.76 -0.76 1.76 -0.76 3.08 l0 7.92 c0 3.48 1.96 4.24 3.56 4.24 l0.48 0 c2.52 0 3.56 -1.68 3.64 -4.24 z M79.28 15.719999999999999 c-4.28 0 -6.76 1.52 -6.76 6.4 l0 9.64 c0 4.44 2.28 6.08 6.76 6.08 c4.2 0 6.72 -1.52 6.72 -6.12 c0 -0.32 -0.48 -0.32 -0.48 0 c0 4.04 -2.2 5.68 -6.24 5.68 c-3.92 0 -6.32 -1.36 -6.32 -5.64 l0 -9.64 c0 -4.16 1.96 -5.96 6.32 -5.96 c5.68 0 5.88 3.6 5.88 4 c0 0.36 0.56 0.4 0.56 0 c0 -3.32 -3.36 -4.44 -6.44 -4.44 z M107.76 30.759999999999998 l0 -1.24 c0 -0.2 0.16 -0.36 0.36 -0.36 l4.56 0 c0.2 0 0.36 0.16 0.36 0.36 l0 2.52 c0 5.88 -3.16 8.36 -9.12 8.36 c-5.56 0 -9.2 -2.2 -9.2 -8.36 l0 -10.52 c0 -5.92 3.24 -8.28 9.2 -8.28 c5.64 0 9.12 2.16 9.12 8.28 l0 0.84 c0 0.2 -0.16 0.36 -0.36 0.36 l-4.6 0 c-0.2 0 -0.36 -0.16 -0.36 -0.36 l0 -0.64 c0 -2.2 -1.64 -3.12 -3.6 -3.12 l-0.48 0 c-1.32 0 -2.2 0.36 -2.8 1.16 c-0.56 0.76 -0.76 1.76 -0.76 3.08 l0 7.92 c0 3.48 1.96 4.24 3.56 4.24 l0.48 0 c2.52 0 3.56 -1.68 3.64 -4.24 z M103.84 15.719999999999999 c-4.28 0 -6.76 1.52 -6.76 6.4 l0 9.64 c0 4.44 2.28 6.08 6.76 6.08 c4.2 0 6.72 -1.52 6.72 -6.12 c0 -0.32 -0.48 -0.32 -0.48 0 c0 4.04 -2.2 5.68 -6.24 5.68 c-3.92 0 -6.32 -1.36 -6.32 -5.64 l0 -9.64 c0 -4.16 1.96 -5.96 6.32 -5.96 c5.68 0 5.88 3.6 5.88 4 c0 0.36 0.56 0.4 0.56 0 c0 -3.32 -3.36 -4.44 -6.44 -4.44 z" />
    </g>
  </svg>